<svg width="20" height="20" viewBox="0 0 20 20" fill="none" xmlns="http://www.w3.org/2000/svg">
<path d="M18.7501 17.8686L14.0314 13.1249C15.1594 11.7637 15.7199 10.0204 15.5962 8.25688C15.4725 6.49338 14.6743 4.84528 13.3673 3.65492C12.0603 2.46456 10.345 1.82342 8.57762 1.86467C6.81027 1.90592 5.12673 2.62639 3.87668 3.87644C2.62663 5.12648 1.90616 6.81002 1.86491 8.57737C1.82366 10.3447 2.4648 12.06 3.65516 13.3671C4.84553 14.6741 6.49362 15.4723 8.25712 15.596C10.0206 15.7196 11.764 15.1592 13.1251 14.0311L17.8689 18.7499L18.7501 17.8686ZM3.12511 8.74987C3.12511 7.63735 3.45501 6.54981 4.07309 5.62478C4.69118 4.69976 5.56968 3.97879 6.59751 3.55304C7.62535 3.1273 8.75635 3.01591 9.84749 3.23295C10.9386 3.44999 11.9409 3.98572 12.7276 4.77239C13.5143 5.55906 14.05 6.56134 14.267 7.65248C14.4841 8.74363 14.3727 9.87463 13.9469 10.9025C13.5212 11.9303 12.8002 12.8088 11.8752 13.4269C10.9502 14.045 9.86263 14.3749 8.75011 14.3749C7.25827 14.3749 5.82752 13.7822 4.77263 12.7273C3.71774 11.6724 3.12511 10.2417 3.12511 8.74987Z" fill="black" fill-opacity="0.75"/>
</svg>
